<svg width="48" height="48" viewBox="0 0 48 48" fill="none" xmlns="http://www.w3.org/2000/svg">
<circle cx="24" cy="24" r="24" fill="white"/>
<path d="M20.75 24.1194C21.0656 22.6497 22.3648 21.5999 23.868 21.5999C25.3713 21.5999 26.6705 22.6497 26.9861 24.1194L28.2971 30.2252C28.8809 32.9441 26.8084 35.5088 24.0275 35.5088H23.7086C20.9276 35.5088 18.8552 32.9441 19.439 30.2252L20.75 24.1194Z" fill="#CFD8E3"/>
<path d="M15.0992 25.7725C13.9504 25.7725 13.019 24.8412 13.019 23.6923C13.019 22.5435 13.9504 21.6121 15.0992 21.6121C16.2481 21.6121 17.1795 22.5435 17.1795 23.6923C17.1795 24.8412 16.2481 25.7725 15.0992 25.7725Z" fill="#CFD8E3"/>
<path d="M32.9027 25.7726C31.7539 25.7726 30.8225 24.8412 30.8225 23.6924C30.8225 22.5435 31.7539 21.6122 32.9027 21.6122C34.0516 21.6122 34.9829 22.5435 34.9829 23.6924C34.9829 24.8412 34.0516 25.7726 32.9027 25.7726Z" fill="#CFD8E3"/>
</svg>
