<svg width="18" height="18" viewBox="0 0 18 18" fill="none" xmlns="http://www.w3.org/2000/svg">
<path d="M15.2744 9.49493C15.152 9.35809 15.0845 9.18216 15.0845 9C15.0845 8.81784 15.152 8.64192 15.2744 8.50507L16.2516 7.42521C16.3593 7.30723 16.4261 7.15878 16.4426 7.00115C16.459 6.84353 16.4242 6.68483 16.3432 6.54783L14.8164 3.95319C14.7362 3.81635 14.614 3.70788 14.4673 3.64324C14.3206 3.57861 14.1569 3.56111 13.9995 3.59324L12.5643 3.8782C12.3817 3.91526 12.1916 3.88539 12.0299 3.79421C11.8681 3.70303 11.746 3.55685 11.6864 3.38326L11.2208 2.01095C11.1695 1.86201 11.072 1.73264 10.9418 1.64113C10.8117 1.54963 10.6556 1.50061 10.4955 1.50102H7.44191C7.27544 1.49248 7.1107 1.53771 6.97285 1.62979C6.835 1.72187 6.73162 1.85574 6.67851 2.01095L6.251 3.38326C6.19146 3.55685 6.06929 3.70303 5.90756 3.79421C5.74582 3.88539 5.55571 3.91526 5.37309 3.8782L3.89972 3.59324C3.75051 3.57252 3.5984 3.59565 3.46256 3.65971C3.32671 3.72376 3.21319 3.82588 3.13632 3.95319L1.60951 6.54783C1.52642 6.6833 1.48906 6.84111 1.50277 6.99869C1.51648 7.15627 1.58056 7.30556 1.68585 7.42521L2.65537 8.50507C2.77776 8.64192 2.84526 8.81784 2.84526 9C2.84526 9.18216 2.77776 9.35809 2.65537 9.49493L1.68585 10.5748C1.58056 10.6944 1.51648 10.8437 1.50277 11.0013C1.48906 11.1589 1.52642 11.3167 1.60951 11.4522L3.13632 14.0468C3.21655 14.1837 3.33871 14.2921 3.48538 14.3568C3.63206 14.4214 3.79576 14.4389 3.95316 14.4068L5.38836 14.1218C5.57097 14.0847 5.76109 14.1146 5.92282 14.2058C6.08456 14.297 6.20672 14.4431 6.26627 14.6167L6.73194 15.989C6.78506 16.1443 6.88844 16.2781 7.02629 16.3702C7.16413 16.4623 7.32888 16.5075 7.49535 16.499H10.549C10.709 16.4994 10.8651 16.4504 10.9953 16.3589C11.1254 16.2674 11.223 16.138 11.2742 15.989L11.7399 14.6167C11.7994 14.4431 11.9216 14.297 12.0833 14.2058C12.245 14.1146 12.4352 14.0847 12.6178 14.1218L14.053 14.4068C14.2104 14.4389 14.3741 14.4214 14.5208 14.3568C14.6674 14.2921 14.7896 14.1837 14.8698 14.0468L16.3966 11.4522C16.4777 11.3152 16.5125 11.1565 16.496 10.9988C16.4796 10.8412 16.4127 10.6928 16.305 10.5748L15.2744 9.49493ZM14.137 10.4998L14.7477 11.1747L13.7705 12.8395L12.8697 12.6595C12.3199 12.5491 11.7479 12.6408 11.2624 12.9173C10.7769 13.1938 10.4117 13.6357 10.236 14.1593L9.94587 14.9992H7.99156L7.71673 14.1443C7.54104 13.6208 7.17577 13.1788 6.69027 12.9023C6.20476 12.6258 5.63281 12.5341 5.08299 12.6445L4.18218 12.8245L3.18976 11.1672L3.80048 10.4923C4.17604 10.0798 4.38367 9.54587 4.38367 8.9925C4.38367 8.43913 4.17604 7.90517 3.80048 7.4927L3.18976 6.8178L4.16691 5.16802L5.06773 5.348C5.61755 5.4584 6.18949 5.36665 6.675 5.09018C7.1605 4.81371 7.52577 4.37175 7.70147 3.8482L7.99156 3.00082H9.94587L10.236 3.8557C10.4117 4.37925 10.7769 4.82121 11.2624 5.09768C11.7479 5.37415 12.3199 5.4659 12.8697 5.3555L13.7705 5.17552L14.7477 6.84029L14.137 7.5152C13.7656 7.92672 13.5606 8.45759 13.5606 9.0075C13.5606 9.55741 13.7656 10.0883 14.137 10.4998Z" fill="white" stroke="black" stroke-width="0.5"/>
<circle cx="8.99982" cy="9" r="2" stroke="white"/>
</svg>
