<svg width="59" height="58" viewBox="0 0 59 58" fill="none" xmlns="http://www.w3.org/2000/svg">
<rect x="0.802734" y="-0.000488281" width="57.6" height="57.6" rx="28.8" fill="white"/>
<path fill-rule="evenodd" clip-rule="evenodd" d="M32.838 16.6135L19.5679 17.6134C18.4979 17.7082 18.125 18.4225 18.125 19.2788V34.1304C18.125 34.7977 18.3574 35.368 18.9164 36.1303L22.0359 40.2716C22.5483 40.9385 23.0139 41.0812 23.9923 41.0334L39.4028 40.0812C40.7061 39.9865 41.0789 39.3672 41.0789 38.32V21.6116C41.0789 21.0702 40.8697 20.9138 40.2526 20.4529C40.2187 20.4276 40.1834 20.4013 40.147 20.374L35.911 17.3275C34.8868 16.5662 34.4676 16.4704 32.838 16.6135ZM24.3417 21.3375C23.0835 21.4244 22.7976 21.4442 22.0831 20.8502L20.2662 19.3746C20.0809 19.1838 20.1738 18.9458 20.6391 18.8986L33.3968 17.9464C34.4673 17.851 35.026 18.2325 35.4452 18.5655L37.6334 20.1841C37.7266 20.2316 37.959 20.5168 37.6794 20.5168L24.5041 21.3263L24.3417 21.3375ZM22.8742 38.1769V23.9921C22.8742 23.3734 23.0604 23.0876 23.6188 23.0395L38.7502 22.1354C39.2635 22.0878 39.4959 22.4213 39.4959 23.0395V37.1292C39.4959 37.7485 39.4025 38.2728 38.5641 38.32L24.0845 39.1774C23.2465 39.2245 22.8742 38.9393 22.8742 38.1769ZM37.1685 24.753C37.2613 25.1819 37.1685 25.6102 36.7486 25.6585L36.0509 25.8007V36.2729C35.4452 36.606 34.8866 36.7965 34.4212 36.7965C33.676 36.7965 33.4893 36.5583 32.9312 35.8446L28.3676 28.5141V35.6067L29.8117 35.94C29.8117 35.94 29.8117 36.7965 28.6467 36.7965L25.4349 36.9872C25.3415 36.7965 25.4349 36.3209 25.7606 36.2255L26.5988 35.9879V26.6102L25.435 26.5148C25.3417 26.086 25.5741 25.4677 26.2265 25.4197L29.672 25.182L34.4212 32.608V26.0387L33.2104 25.8965C33.1174 25.3723 33.4893 24.9916 33.955 24.9444L37.1685 24.753Z" fill="black"/>
</svg>
