<svg width="54" height="55" viewBox="0 0 54 55" fill="none" xmlns="http://www.w3.org/2000/svg">
<path d="M6.91602 31.4238C6.91602 20.1311 16.0706 10.9766 27.3633 10.9766V10.9766C38.656 10.9766 47.8106 20.1311 47.8106 31.4238V33.0451C47.8106 44.3378 38.656 53.4923 27.3633 53.4923V53.4923C16.0706 53.4923 6.91602 44.3378 6.91602 33.0451V31.4238Z" fill="white"/>
<rect x="34.8809" y="7.34717" width="17.411" height="18.1012" rx="8.7055" fill="white"/>
<rect x="1.26758" y="7.34717" width="17.411" height="18.1012" rx="8.7055" fill="white"/>
<ellipse cx="51.185" cy="18.6376" rx="2.07273" ry="2.74261" fill="white"/>
<ellipse cx="50.4087" cy="22.4086" rx="2.07274" ry="2.74261" fill="white"/>
<ellipse cx="48.0776" cy="24.4653" rx="2.07274" ry="2.74261" fill="white"/>
<ellipse rx="2.07483" ry="2.74005" transform="matrix(-0.986465 0.16397 0.151997 0.988381 2.76525 18.6993)" fill="white"/>
<ellipse rx="2.07483" ry="2.74005" transform="matrix(-0.986465 0.16397 0.151997 0.988381 4.10411 22.2957)" fill="white"/>
<ellipse rx="2.07483" ry="2.74005" transform="matrix(-0.986465 0.16397 0.151997 0.988381 6.71935 23.9439)" fill="white"/>
<path d="M31.3906 29.4652C31.3906 30.6207 32.3273 31.5574 33.4828 31.5574V31.5574C34.6382 31.5574 35.5749 30.6207 35.5749 29.4652V29.2993C35.5749 28.1439 34.6382 27.2072 33.4828 27.2072V27.2072C32.3273 27.2072 31.3906 28.1439 31.3906 29.2993V29.4652Z" fill="#3C2F41"/>
<rect width="4.1843" height="4.35019" rx="2.09215" transform="matrix(1 0 0 -1 14.5273 31.5574)" fill="#3C2F41"/>
<path d="M21.3733 30.467C21.5993 28.6063 23.1787 27.207 25.0532 27.207V27.207C26.9276 27.207 28.507 28.6063 28.733 30.467L29.4941 36.7342C29.8077 39.3156 27.7928 41.5899 25.1925 41.5899H24.9139C22.3135 41.5899 20.2987 39.3156 20.6122 36.7342L21.3733 30.467Z" fill="#3C2F41"/>
<path d="M25.1465 10.6234L30.3378 6.56665L31.0004 8.9209L30.3378 10.9856L25.3909 12.7967L25.1465 10.6234Z" fill="#121212"/>
<path d="M19.3403 11.804C19.1613 11.5189 19.3574 11.182 19.6808 11.2038C21.1632 11.2951 22.5535 10.6055 23.3704 9.29733L24.4013 7.64659C25.7673 5.45935 28.6033 4.85108 30.7329 6.28858C30.8736 6.38351 30.9979 6.49088 31.1255 6.59754C29.3852 7.29426 27.4188 8.6685 25.7359 11.3633C25.6225 11.5449 25.6744 11.7911 25.8512 11.9105C26.028 12.0298 26.2654 11.9789 26.3788 11.7973C29.6184 6.60984 34.0881 6.50003 35.5554 6.79826C35.968 6.88312 36.2411 7.29631 36.1657 7.72351C36.091 8.15413 35.6926 8.43079 35.2795 8.35141C35.1878 8.33354 34.0478 8.13308 32.5327 8.60636C32.9972 9.87025 33.0452 11.7095 31.83 13.2622C29.5778 16.3472 25.3251 16.7179 21.8614 14.3799C20.8529 13.6991 19.9473 12.7711 19.3403 11.804V11.804Z" fill="#B9FF46"/>
</svg>
