<svg width="52" height="52" viewBox="0 0 52 52" fill="none" xmlns="http://www.w3.org/2000/svg">
<rect x="0.00195312" y="0.199707" width="51.2" height="51.2" rx="25.6" fill="#151515"/>
<path opacity="0.5" fill-rule="evenodd" clip-rule="evenodd" d="M28.838 13.6135L15.5679 14.6134C14.4979 14.7082 14.125 15.4225 14.125 16.2788V31.1304C14.125 31.7977 14.3574 32.368 14.9164 33.1303L18.0359 37.2716C18.5483 37.9385 19.0139 38.0812 19.9923 38.0334L35.4028 37.0812C36.7061 36.9865 37.0789 36.3672 37.0789 35.32V18.6116C37.0789 18.0702 36.8697 17.9138 36.2526 17.4529C36.2187 17.4276 36.1834 17.4013 36.147 17.374L31.911 14.3275C30.8868 13.5662 30.4676 13.4704 28.838 13.6135ZM20.3417 18.3375C19.0835 18.4244 18.7976 18.4442 18.0831 17.8502L16.2662 16.3746C16.0809 16.1838 16.1738 15.9458 16.6391 15.8986L29.3968 14.9464C30.4673 14.851 31.026 15.2325 31.4452 15.5655L33.6334 17.1841C33.7266 17.2316 33.959 17.5168 33.6794 17.5168L20.5041 18.3263L20.3417 18.3375ZM18.8742 35.1769V20.9921C18.8742 20.3734 19.0604 20.0876 19.6188 20.0395L34.7502 19.1354C35.2635 19.0878 35.4959 19.4213 35.4959 20.0395V34.1292C35.4959 34.7485 35.4025 35.2728 34.5641 35.32L20.0845 36.1774C19.2465 36.2245 18.8742 35.9393 18.8742 35.1769ZM33.1685 21.753C33.2613 22.1819 33.1685 22.6102 32.7486 22.6585L32.0509 22.8007V33.2729C31.4452 33.606 30.8866 33.7965 30.4212 33.7965C29.676 33.7965 29.4893 33.5583 28.9312 32.8446L24.3676 25.5141V32.6067L25.8117 32.94C25.8117 32.94 25.8117 33.7965 24.6467 33.7965L21.4349 33.9872C21.3415 33.7965 21.4349 33.3209 21.7606 33.2255L22.5988 32.9879V23.6102L21.435 23.5148C21.3417 23.086 21.5741 22.4677 22.2265 22.4197L25.672 22.182L30.4212 29.608V23.0387L29.2104 22.8965C29.1174 22.3723 29.4893 21.9916 29.955 21.9444L33.1685 21.753Z" fill="white"/>
</svg>
