<svg width="51" height="51" viewBox="0 0 51 51" fill="none" xmlns="http://www.w3.org/2000/svg">
<rect width="51" height="51" rx="25.5" fill="#151515"/>
<path opacity="0.5" d="M20.3045 21.3613C20.2395 20.9388 20.207 20.5081 20.207 20.0693C20.2233 19.6306 20.3045 19.1999 20.4508 18.7774C20.6296 18.2248 20.9221 17.7373 21.3284 17.3147C21.7347 16.8922 22.1978 16.5591 22.7179 16.3153C23.2704 16.0553 23.8311 15.8765 24.3999 15.779C24.9849 15.6652 25.5537 15.6409 26.1063 15.7059C26.675 15.7709 27.2195 15.9171 27.7395 16.1447C28.2758 16.3559 28.7796 16.6647 29.2509 17.071C29.7547 17.5098 30.1284 18.0217 30.3722 18.6067C30.6322 19.1755 30.7704 19.7687 30.7866 20.3862C30.8191 21.0038 30.746 21.6213 30.5672 22.2389C30.4047 22.8402 30.1528 23.4009 29.8115 23.9209C29.8115 23.9209 29.8034 23.9371 29.7872 23.9697C29.5109 24.3434 29.194 24.6847 28.8365 24.9935C28.4789 25.286 28.1458 25.6029 27.837 25.9442C27.4795 26.318 27.2682 26.6999 27.2032 27.0899C27.1382 27.4637 27.0732 27.8862 27.0082 28.3575C26.9594 28.8125 26.8376 29.2107 26.6425 29.552C26.4638 29.877 26.1225 30.0314 25.6187 30.0151C25.2774 29.9989 25.0174 29.8932 24.8387 29.6982C24.6761 29.487 24.5543 29.2432 24.473 28.9669C24.408 28.6744 24.3836 28.3738 24.3999 28.065C24.4161 27.74 24.4405 27.4556 24.473 27.2118C24.5705 26.643 24.7493 26.1067 25.0093 25.6029C25.2693 25.0829 25.5862 24.5953 25.96 24.1403C26.1713 23.8965 26.3825 23.6771 26.5938 23.4821C26.8051 23.2708 27.0001 23.0515 27.1788 22.8239C27.3576 22.5964 27.512 22.3526 27.642 22.0926C27.772 21.8326 27.8614 21.532 27.9101 21.1907C27.9589 20.8819 27.9345 20.5731 27.837 20.2644C27.7395 19.9393 27.5932 19.6549 27.3982 19.4112C27.2032 19.1511 26.9676 18.9399 26.6913 18.7774C26.415 18.5986 26.1144 18.5011 25.7894 18.4848C25.4968 18.4686 25.1881 18.5092 24.863 18.6067C24.538 18.688 24.2374 18.8261 23.9611 19.0211C23.6848 19.1999 23.4573 19.4193 23.2785 19.6793C23.116 19.9393 23.0429 20.2319 23.0591 20.5569C23.0754 20.7519 23.1079 20.955 23.1566 21.1663C23.2216 21.3613 23.2623 21.5563 23.2785 21.7514C23.311 21.9301 23.3029 22.1089 23.2541 22.2876C23.2216 22.4664 23.116 22.637 22.9372 22.7996C22.6447 23.0758 22.3522 23.214 22.0597 23.214C21.7672 23.1977 21.499 23.1002 21.2552 22.9214C21.0115 22.7427 20.8002 22.5152 20.6214 22.2389C20.4589 21.9464 20.3533 21.6538 20.3045 21.3613ZM27.3251 33.5254C27.3251 33.9967 27.1463 34.4192 26.7888 34.793C26.4475 35.1505 26.0494 35.3293 25.5943 35.3293C25.1556 35.3293 24.7655 35.1505 24.4242 34.793C24.083 34.403 23.9123 33.9804 23.9123 33.5254C23.9123 33.0216 24.083 32.5991 24.4242 32.2578C24.7655 31.884 25.1556 31.6971 25.5943 31.6971C26.0494 31.6971 26.4475 31.884 26.7888 32.2578C27.1463 32.6153 27.3251 33.0379 27.3251 33.5254Z" fill="white"/>
</svg>
