<svg width="25" height="25" viewBox="0 0 25 25" fill="none" xmlns="http://www.w3.org/2000/svg">
<path d="M19.0904 11.1755H6.49043C5.49632 11.1755 4.69043 11.9814 4.69043 12.9755V19.2755C4.69043 20.2697 5.49632 21.0755 6.49043 21.0755H19.0904C20.0845 21.0755 20.8904 20.2697 20.8904 19.2755V12.9755C20.8904 11.9814 20.0845 11.1755 19.0904 11.1755Z" stroke="white" stroke-width="1.5" stroke-linecap="round" stroke-linejoin="round"/>
<path d="M8.29047 11.1754V7.57544C8.29047 6.38196 8.76457 5.23737 9.60849 4.39346C10.4524 3.54955 11.597 3.07544 12.7905 3.07544C13.9839 3.07544 15.1285 3.54955 15.9724 4.39346C16.8164 5.23737 17.2905 6.38196 17.2905 7.57544V11.1754" stroke="white" stroke-width="1.5" stroke-linecap="round" stroke-linejoin="round"/>
</svg>
