<svg width="19" height="19" viewBox="0 0 19 19" fill="none" xmlns="http://www.w3.org/2000/svg">
<path d="M7.73828 10.6633C8.02458 11.0461 8.38985 11.3628 8.80931 11.5919C9.22878 11.8211 9.69262 11.9574 10.1694 11.9915C10.6461 12.0257 11.1247 11.9569 11.5725 11.7898C12.0204 11.6228 12.427 11.3614 12.7649 11.0233L14.7649 9.02331C15.3721 8.39463 15.7081 7.55263 15.7005 6.67864C15.6929 5.80465 15.3424 4.96861 14.7243 4.35058C14.1063 3.73255 13.2703 3.38199 12.3963 3.37439C11.5223 3.3668 10.6803 3.70278 10.0516 4.30997L8.90495 5.44997" stroke="white" stroke-width="1.5" stroke-linecap="round" stroke-linejoin="round"/>
<path d="M10.4057 9.3299C10.1194 8.94715 9.75416 8.63045 9.3347 8.40128C8.91524 8.1721 8.45139 8.03582 7.97463 8.00168C7.49787 7.96754 7.01934 8.03632 6.5715 8.20338C6.12366 8.37044 5.71699 8.63186 5.37907 8.9699L3.37907 10.9699C2.77187 11.5986 2.43589 12.4406 2.44349 13.3146C2.45108 14.1886 2.80164 15.0246 3.41967 15.6426C4.0377 16.2607 4.87374 16.6112 5.74773 16.6188C6.62172 16.6264 7.46372 16.2904 8.0924 15.6832L9.2324 14.5432" stroke="white" stroke-width="1.5" stroke-linecap="round" stroke-linejoin="round"/>
</svg>
