<svg width="25" height="25" viewBox="0 0 25 25" fill="none" xmlns="http://www.w3.org/2000/svg">
<path d="M12.5361 14.9966C13.6407 14.9966 14.5361 14.1012 14.5361 12.9966C14.5361 11.892 13.6407 10.9966 12.5361 10.9966C11.4316 10.9966 10.5361 11.892 10.5361 12.9966C10.5361 14.1012 11.4316 14.9966 12.5361 14.9966Z" fill="white"/>
<path d="M20.5361 14.9966C21.6407 14.9966 22.5361 14.1012 22.5361 12.9966C22.5361 11.892 21.6407 10.9966 20.5361 10.9966C19.4316 10.9966 18.5361 11.892 18.5361 12.9966C18.5361 14.1012 19.4316 14.9966 20.5361 14.9966Z" fill="white"/>
<path d="M4.53613 14.9966C5.6407 14.9966 6.53613 14.1012 6.53613 12.9966C6.53613 11.892 5.6407 10.9966 4.53613 10.9966C3.43156 10.9966 2.53613 11.892 2.53613 12.9966C2.53613 14.1012 3.43156 14.9966 4.53613 14.9966Z" fill="white"/>
</svg>
