<svg width="115" height="42" viewBox="0 0 115 42" fill="none" xmlns="http://www.w3.org/2000/svg">
<path d="M11.479 23.5137C11.0478 22.872 11.4316 22.1765 12.1433 22.2732C15.4044 22.6983 18.3568 21.4272 19.9684 18.7351L22.002 15.3382C24.6964 10.8372 30.8284 9.96398 35.6919 13.3887C36.0131 13.6148 36.3002 13.8653 36.5944 14.1147C32.8758 15.3473 28.7544 18.0045 25.4347 23.55C25.211 23.9237 25.3583 24.462 25.7621 24.7463C26.1658 25.0307 26.6792 24.9576 26.9029 24.5839C33.2933 13.9089 43.0735 14.3612 46.33 15.2298C47.2457 15.4761 47.9008 16.4083 47.7939 17.3169C47.689 18.233 46.8537 18.7675 45.9376 18.5329C45.7343 18.4802 43.2085 17.8727 39.953 18.6587C41.1436 21.4528 41.5003 25.4222 39.0492 28.5796C34.5353 34.8778 25.2662 35.0208 17.3561 29.4508C15.0528 27.8289 12.9415 25.6903 11.479 23.5137Z" fill="#B9FF46"/>
<path d="M39.4116 23.5136C38.9805 22.872 39.3642 22.1765 40.0759 22.2732C43.337 22.6983 46.2894 21.4272 47.901 18.7351L49.9346 15.3382C52.6291 10.8372 58.761 9.96398 63.6245 13.3887C63.9457 13.6148 64.2328 13.8653 64.527 14.1147C60.8084 15.3473 56.687 18.0045 53.3673 23.55C53.1436 23.9237 53.2909 24.462 53.6947 24.7463C54.0984 25.0307 54.6118 24.9576 54.8355 24.5839C61.226 13.9089 71.0061 14.3612 74.2626 15.2298C75.1783 15.4761 75.8334 16.4083 75.7265 17.3169C75.6216 18.233 74.7863 18.7675 73.8702 18.5329C73.6669 18.4802 71.1412 17.8727 67.8856 18.6587C69.0762 21.4528 69.4329 25.4222 66.9819 28.5796C62.4679 34.8778 53.1989 35.0208 45.2887 29.4508C42.9854 27.8289 40.8741 25.6903 39.4116 23.5136Z" fill="#B9FF46"/>
<path d="M67.3438 23.5136C66.9126 22.872 67.2964 22.1765 68.0081 22.2732C71.2691 22.6983 74.2216 21.4272 75.8332 18.7351L77.8667 15.3382C80.5612 10.8372 86.6931 9.96398 91.5567 13.3887C91.8778 13.6148 92.1649 13.8653 92.4591 14.1147C88.7405 15.3473 84.6192 18.0045 81.2994 23.55C81.0757 23.9237 81.223 24.462 81.6268 24.7463C82.0306 25.0307 82.5439 24.9576 82.7676 24.5839C89.1581 13.9089 98.9383 14.3612 102.195 15.2298C103.11 15.4761 103.766 16.4083 103.659 17.3169C103.554 18.233 102.718 18.7675 101.802 18.5329C101.599 18.4802 99.0733 17.8727 95.8177 18.6587C97.0084 21.4528 97.365 25.4222 94.914 28.5796C90.4001 34.8778 81.131 35.0208 73.2209 29.4508C70.9176 27.8289 68.8062 25.6903 67.3438 23.5136Z" fill="#B9FF46"/>
</svg>
