<svg width="36" height="36" viewBox="0 0 36 36" fill="none" xmlns="http://www.w3.org/2000/svg">
<rect width="36" height="36" rx="18" fill="white"/>
<path fill-rule="evenodd" clip-rule="evenodd" d="M20.0228 10.3835L11.729 11.0085C11.0602 11.0678 10.8271 11.5142 10.8271 12.0494V21.3316C10.8271 21.7487 10.9724 22.1051 11.3218 22.5816L13.2714 25.1699C13.5917 25.5867 13.8827 25.6758 14.4942 25.646L24.1257 25.0509C24.9403 24.9917 25.1734 24.6046 25.1734 23.9501V13.5073C25.1734 13.169 25.0426 13.0713 24.6569 12.7832C24.6357 12.7674 24.6137 12.7509 24.5909 12.7339L21.9434 10.8298C21.3033 10.354 21.0413 10.2941 20.0228 10.3835ZM14.7126 13.3361C13.9262 13.3904 13.7475 13.4027 13.301 13.0315L12.1654 12.1093C12.0496 11.99 12.1076 11.8413 12.3985 11.8117L20.372 11.2166C21.0411 11.157 21.3902 11.3954 21.6523 11.6036L23.0199 12.6152C23.0781 12.6448 23.2234 12.8231 23.0487 12.8231L14.8141 13.3291L14.7126 13.3361ZM13.7954 23.8607V14.9952C13.7954 14.6085 13.9118 14.4298 14.2608 14.3998L23.7179 13.8347C24.0387 13.805 24.184 14.0134 24.184 14.3998V23.2059C24.184 23.593 24.1256 23.9206 23.6016 23.9501L14.5518 24.486C14.0281 24.5154 13.7954 24.3372 13.7954 23.8607ZM22.7293 15.4707C22.7874 15.7388 22.7293 16.0065 22.4669 16.0367L22.0308 16.1256V22.6707C21.6523 22.8789 21.3032 22.9979 21.0123 22.9979C20.5465 22.9979 20.4298 22.849 20.081 22.403L17.2288 17.8214V22.2543L18.1313 22.4627C18.1313 22.4627 18.1313 22.9979 17.4032 22.9979L15.3958 23.1171C15.3375 22.9979 15.3958 22.7007 15.5994 22.6411L16.1232 22.4925V16.6315L15.3959 16.5719C15.3376 16.3039 15.4828 15.9174 15.8906 15.8874L18.044 15.7389L21.0123 20.3801V16.2743L20.2555 16.1855C20.1974 15.8578 20.4298 15.6199 20.7209 15.5903L22.7293 15.4707Z" fill="black"/>
</svg>
