<svg width="36" height="36" viewBox="0 0 36 36" fill="none" xmlns="http://www.w3.org/2000/svg">
<rect width="36" height="36" rx="18" fill="white"/>
<path d="M14.7399 15.4033C14.6991 15.1382 14.6787 14.8679 14.6787 14.5926C14.6889 14.3173 14.7399 14.0471 14.8317 13.782C14.9438 13.4353 15.1274 13.1294 15.3823 12.8643C15.6372 12.5991 15.9278 12.3901 16.2541 12.2372C16.6008 12.074 16.9526 11.9618 17.3095 11.9007C17.6766 11.8293 18.0335 11.814 18.3802 11.8548C18.7371 11.8956 19.0787 11.9873 19.405 12.1301C19.7415 12.2626 20.0576 12.4564 20.3533 12.7113C20.6694 12.9866 20.9039 13.3078 21.0569 13.6749C21.22 14.0318 21.3067 14.404 21.3169 14.7915C21.3373 15.179 21.2914 15.5664 21.1792 15.9539C21.0773 16.3312 20.9192 16.683 20.7051 17.0093C20.7051 17.0093 20.7 17.0195 20.6898 17.0399C20.5164 17.2744 20.3176 17.4885 20.0933 17.6823C19.8689 17.8658 19.6599 18.0647 19.4662 18.2788C19.2418 18.5133 19.1093 18.753 19.0685 18.9977C19.0277 19.2322 18.9869 19.4973 18.9461 19.793C18.9155 20.0786 18.839 20.3284 18.7167 20.5425C18.6045 20.7465 18.3904 20.8433 18.0743 20.8331C17.8601 20.8229 17.697 20.7567 17.5848 20.6343C17.4829 20.5017 17.4064 20.3488 17.3554 20.1754C17.3146 19.9919 17.2993 19.8032 17.3095 19.6095C17.3197 19.4056 17.335 19.2271 17.3554 19.0742C17.4166 18.7173 17.5287 18.3808 17.6919 18.0647C17.855 17.7384 18.0539 17.4325 18.2884 17.147C18.421 16.994 18.5535 16.8563 18.6861 16.734C18.8186 16.6014 18.941 16.4638 19.0532 16.321C19.1653 16.1782 19.2622 16.0253 19.3438 15.8621C19.4254 15.699 19.4814 15.5104 19.512 15.2962C19.5426 15.1025 19.5273 14.9087 19.4662 14.715C19.405 14.5111 19.3132 14.3326 19.1908 14.1797C19.0685 14.0165 18.9206 13.8839 18.7473 13.782C18.5739 13.6698 18.3853 13.6086 18.1813 13.5984C17.9978 13.5882 17.8041 13.6137 17.6001 13.6749C17.3962 13.7259 17.2075 13.8126 17.0342 13.9349C16.8608 14.0471 16.7181 14.1848 16.6059 14.3479C16.504 14.5111 16.4581 14.6946 16.4683 14.8985C16.4785 15.0209 16.4989 15.1484 16.5294 15.2809C16.5702 15.4033 16.5957 15.5256 16.6059 15.648C16.6263 15.7602 16.6212 15.8723 16.5906 15.9845C16.5702 16.0967 16.504 16.2037 16.3918 16.3057C16.2082 16.4791 16.0247 16.5657 15.8412 16.5657C15.6576 16.5555 15.4894 16.4944 15.3364 16.3822C15.1835 16.27 15.0509 16.1273 14.9387 15.9539C14.8368 15.7704 14.7705 15.5868 14.7399 15.4033ZM19.1449 23.0357C19.1449 23.3314 19.0328 23.5965 18.8085 23.831C18.5943 24.0553 18.3445 24.1675 18.059 24.1675C17.7837 24.1675 17.5389 24.0553 17.3248 23.831C17.1107 23.5863 17.0036 23.3212 17.0036 23.0357C17.0036 22.7196 17.1107 22.4544 17.3248 22.2403C17.5389 22.0058 17.7837 21.8885 18.059 21.8885C18.3445 21.8885 18.5943 22.0058 18.8085 22.2403C19.0328 22.4646 19.1449 22.7298 19.1449 23.0357Z" fill="black"/>
</svg>
