<svg width="58" height="58" viewBox="0 0 58 58" fill="none" xmlns="http://www.w3.org/2000/svg">
<rect width="58" height="58" rx="29" fill="white"/>
<path d="M23.747 24.8164C23.6813 24.3892 23.6484 23.9539 23.6484 23.5103C23.6649 23.0668 23.747 22.6314 23.8949 22.2043C24.0756 21.6457 24.3713 21.1529 24.782 20.7257C25.1927 20.2986 25.6609 19.9618 26.1866 19.7154C26.7452 19.4525 27.312 19.2718 27.8869 19.1732C28.4784 19.0582 29.0534 19.0336 29.6119 19.0993C30.1869 19.165 30.7373 19.3129 31.263 19.5429C31.8051 19.7565 32.3144 20.0686 32.7908 20.4793C33.3001 20.9229 33.6779 21.4404 33.9244 22.0318C34.1872 22.6068 34.3268 23.2064 34.3433 23.8307C34.3761 24.455 34.3022 25.0792 34.1215 25.7035C33.9572 26.3114 33.7026 26.8781 33.3576 27.4038C33.3576 27.4038 33.3494 27.4203 33.3329 27.4531C33.0537 27.831 32.7333 28.176 32.3719 28.4881C32.0105 28.7838 31.6737 29.1042 31.3615 29.4492C31.0001 29.827 30.7865 30.2131 30.7208 30.6074C30.6551 30.9852 30.5894 31.4123 30.5237 31.8888C30.4744 32.3488 30.3512 32.7513 30.1541 33.0963C29.9733 33.4248 29.6283 33.5809 29.1191 33.5645C28.7741 33.548 28.5112 33.4412 28.3305 33.2441C28.1662 33.0305 28.043 32.7841 27.9609 32.5048C27.8952 32.2091 27.8705 31.9052 27.8869 31.5931C27.9034 31.2645 27.928 30.977 27.9609 30.7306C28.0594 30.1556 28.2402 29.6134 28.503 29.1042C28.7659 28.5785 29.0862 28.0856 29.4641 27.6256C29.6776 27.3792 29.8912 27.1574 30.1048 26.9603C30.3183 26.7467 30.5155 26.5249 30.6962 26.2949C30.8769 26.0649 31.033 25.8185 31.1644 25.5557C31.2958 25.2928 31.3862 24.9889 31.4355 24.6439C31.4847 24.3317 31.4601 24.0196 31.3615 23.7075C31.263 23.3789 31.1151 23.0914 30.918 22.845C30.7208 22.5821 30.4826 22.3686 30.2033 22.2043C29.9241 22.0236 29.6201 21.925 29.2916 21.9086C28.9959 21.8921 28.6837 21.9332 28.3552 22.0318C28.0266 22.1139 27.7227 22.2536 27.4434 22.4507C27.1641 22.6314 26.9341 22.8532 26.7534 23.116C26.5891 23.3789 26.5152 23.6746 26.5316 24.0032C26.548 24.2003 26.5809 24.4057 26.6302 24.6192C26.6959 24.8164 26.737 25.0135 26.7534 25.2107C26.7862 25.3914 26.778 25.5721 26.7287 25.7528C26.6959 25.9335 26.5891 26.106 26.4084 26.2703C26.1127 26.5496 25.817 26.6892 25.5213 26.6892C25.2256 26.6728 24.9545 26.5742 24.7081 26.3935C24.4616 26.2128 24.2481 25.9828 24.0674 25.7035C23.9031 25.4078 23.7963 25.1121 23.747 24.8164ZM30.844 37.113C30.844 37.5894 30.6633 38.0165 30.3019 38.3944C29.9569 38.7558 29.5544 38.9365 29.0944 38.9365C28.6509 38.9365 28.2566 38.7558 27.9116 38.3944C27.5666 38.0001 27.3941 37.573 27.3941 37.113C27.3941 36.6037 27.5666 36.1766 27.9116 35.8316C28.2566 35.4537 28.6509 35.2648 29.0944 35.2648C29.5544 35.2648 29.9569 35.4537 30.3019 35.8316C30.6633 36.193 30.844 36.6201 30.844 37.113Z" fill="black"/>
</svg>
