<svg width="40" height="40" viewBox="0 0 40 40" fill="none" xmlns="http://www.w3.org/2000/svg">
<ellipse cx="20" cy="19.6923" rx="20" ry="19.6923" fill="white"/>
<path d="M17.2914 19.8928C17.5544 18.6805 18.637 17.8147 19.8898 17.8147C21.1425 17.8147 22.2251 18.6805 22.4881 19.8928L23.5807 24.9285C24.0672 27.1709 22.3401 29.2862 20.0227 29.2862H19.7569C17.4394 29.2862 15.7124 27.1709 16.1989 24.9285L17.2914 19.8928Z" fill="#CFD8E3"/>
<path d="M12.5824 21.2562C11.6251 21.2562 10.8489 20.488 10.8489 19.5405C10.8489 18.593 11.6251 17.8248 12.5824 17.8248C13.5398 17.8248 14.3159 18.593 14.3159 19.5405C14.3159 20.488 13.5398 21.2562 12.5824 21.2562Z" fill="#CFD8E3"/>
<path d="M27.4187 21.2562C26.4613 21.2562 25.6852 20.488 25.6852 19.5405C25.6852 18.593 26.4613 17.8248 27.4187 17.8248C28.3761 17.8248 29.1522 18.593 29.1522 19.5405C29.1522 20.488 28.3761 21.2562 27.4187 21.2562Z" fill="#CFD8E3"/>
</svg>
