<svg width="45" height="37" viewBox="0 0 45 37" fill="none" xmlns="http://www.w3.org/2000/svg">
<rect x="0.580078" y="0.248291" width="44" height="36" rx="18" fill="#2A2A2A"/>
<path d="M25.126 23.9758V22.703C25.126 22.0279 24.8578 21.3804 24.3804 20.9031C23.903 20.4257 23.2555 20.1575 22.5804 20.1575H18.1256C17.4505 20.1575 16.803 20.4257 16.3257 20.9031C15.8483 21.3804 15.5801 22.0279 15.5801 22.703V23.9758" stroke="white" stroke-width="1.5" stroke-linecap="round" stroke-linejoin="round"/>
<path d="M20.3527 17.6119C21.7586 17.6119 22.8983 16.4722 22.8983 15.0663C22.8983 13.6604 21.7586 12.5208 20.3527 12.5208C18.9468 12.5208 17.8071 13.6604 17.8071 15.0663C17.8071 16.4722 18.9468 17.6119 20.3527 17.6119Z" stroke="white" stroke-width="1.5" stroke-linecap="round" stroke-linejoin="round"/>
<path d="M27.6709 15.7026V19.521" stroke="white" stroke-width="1.5" stroke-linecap="round" stroke-linejoin="round"/>
<path d="M29.5801 17.6118H25.7617" stroke="white" stroke-width="1.5" stroke-linecap="round" stroke-linejoin="round"/>
</svg>
