<svg width="45" height="37" viewBox="0 0 45 37" fill="none" xmlns="http://www.w3.org/2000/svg">
<rect x="0.0175781" y="0.248291" width="44" height="36" rx="18" fill="#2A2A2A"/>
<path d="M24.5635 23.9758V22.703C24.5635 22.0279 24.2953 21.3804 23.8179 20.9031C23.3405 20.4257 22.693 20.1575 22.0179 20.1575H17.5631C16.888 20.1575 16.2405 20.4257 15.7632 20.9031C15.2858 21.3804 15.0176 22.0279 15.0176 22.703V23.9758" stroke="white" stroke-width="1.5" stroke-linecap="round" stroke-linejoin="round"/>
<path d="M19.7902 17.6119C21.1961 17.6119 22.3358 16.4722 22.3358 15.0663C22.3358 13.6604 21.1961 12.5208 19.7902 12.5208C18.3843 12.5208 17.2446 13.6604 17.2446 15.0663C17.2446 16.4722 18.3843 17.6119 19.7902 17.6119Z" stroke="white" stroke-width="1.5" stroke-linecap="round" stroke-linejoin="round"/>
<path d="M25.1992 17.6119L26.472 18.8847L29.0176 16.3391" stroke="white" stroke-width="1.5" stroke-linecap="round" stroke-linejoin="round"/>
</svg>
