<svg width="44" height="36" viewBox="0 0 44 36" fill="none" xmlns="http://www.w3.org/2000/svg">
<rect width="44" height="36" rx="18" fill="#2A2A2A"/>
<path d="M22.5459 23.7275V22.4547C22.5459 21.7796 22.2777 21.1321 21.8003 20.6547C21.3229 20.1774 20.6754 19.9092 20.0003 19.9092H15.5456C14.8704 19.9092 14.223 20.1774 13.7456 20.6547C13.2682 21.1321 13 21.7796 13 22.4547V23.7275" stroke="white" stroke-width="1.5" stroke-linecap="round" stroke-linejoin="round"/>
<path d="M28 15V21" stroke="white" stroke-width="1.5" stroke-linecap="round" stroke-linejoin="round"/>
<path d="M31 18H25" stroke="white" stroke-width="1.5" stroke-linecap="round" stroke-linejoin="round"/>
<path d="M17.7731 17.3636C19.179 17.3636 20.3187 16.2239 20.3187 14.818C20.3187 13.4122 19.179 12.2725 17.7731 12.2725C16.3672 12.2725 15.2275 13.4122 15.2275 14.818C15.2275 16.2239 16.3672 17.3636 17.7731 17.3636Z" stroke="white" stroke-width="1.5" stroke-linecap="round" stroke-linejoin="round"/>
</svg>
