<svg width="16" height="16" viewBox="0 0 16 16" fill="none" xmlns="http://www.w3.org/2000/svg">
<rect width="16" height="16" fill="#121212"/>
<path fill-rule="evenodd" clip-rule="evenodd" d="M12.5828 2.28564C11.5768 2.28564 10.7153 2.92056 10.3582 3.82114C9.77139 3.58085 9.13106 3.44871 8.46064 3.44871C7.44506 3.44871 6.487 3.70141 5.64294 4.14888C5.38192 3.07847 4.43824 2.28565 3.31408 2.28565C1.98831 2.28565 0.913559 3.38835 0.913559 4.7486C0.913559 4.77134 0.91386 4.79401 0.914457 4.8166C0.785521 4.97368 0.722122 5.21368 0.761679 5.46754C0.804679 5.74348 0.9583 5.96496 1.14991 6.06305C1.11828 6.1799 1.11017 6.31108 1.13123 6.44618C1.19465 6.85321 1.49875 7.14172 1.81045 7.09059C1.83993 7.08576 1.86841 7.07806 1.89578 7.06774C2.00632 7.38009 2.26617 7.58271 2.53153 7.53918C2.60774 7.52668 2.67735 7.49503 2.7381 7.4484C2.46425 8.16292 2.31386 8.94112 2.31386 9.75537V10.1781C2.31386 12.7871 4.47535 14.8457 7.01116 14.652L8.91529 14.5065L10.7604 14.1238C11.5814 13.9535 12.4342 14.1462 13.1095 14.6545C13.306 14.8024 13.583 14.6585 13.583 14.4084V8.70426C13.583 8.29436 13.5372 7.89543 13.4507 7.51253C13.5505 7.62349 13.6798 7.69045 13.8211 7.69045C14.0898 7.69045 14.3153 7.44828 14.3763 7.12194C14.405 7.1277 14.4343 7.13069 14.4641 7.13069C14.7798 7.13069 15.0357 6.79653 15.0357 6.38434C15.0357 6.24752 15.0075 6.1193 14.9583 6.00905C15.1324 5.88115 15.25 5.63756 15.25 5.3581C15.25 5.09219 15.1435 4.85876 14.9832 4.72657C14.9716 3.37646 13.9014 2.28564 12.5828 2.28564ZM5.9674 8.65221C6.04305 8.29073 6.35447 8.03254 6.71481 8.03254C7.07516 8.03254 7.38657 8.29073 7.46222 8.65221L7.77648 10.1538C7.91643 10.8225 7.41964 11.4533 6.75304 11.4533H6.67658C6.00998 11.4533 5.5132 10.8225 5.65314 10.1538L5.9674 8.65221ZM4.61288 9.05877C4.33749 9.05877 4.11425 8.82972 4.11425 8.54717C4.11425 8.26462 4.33749 8.03556 4.61288 8.03556C4.88827 8.03556 5.11152 8.26462 5.11152 8.54717C5.11152 8.82972 4.88827 9.05877 4.61288 9.05877ZM8.88047 9.05878C8.60509 9.05878 8.38184 8.82973 8.38184 8.54717C8.38184 8.26462 8.60509 8.03557 8.88047 8.03557C9.15586 8.03557 9.37911 8.26462 9.37911 8.54717C9.37911 8.82973 9.15586 9.05878 8.88047 9.05878Z" fill="white"/>
<path d="M7.5 4V3L8 3.5V4H7.5Z" stroke="#121212"/>
<path d="M6.11387 3.86477C6.07455 3.79939 6.11764 3.72212 6.1887 3.72711C6.51439 3.74805 6.81983 3.58991 6.99933 3.28988L7.22582 2.9113C7.52593 2.40967 8.14902 2.27017 8.61692 2.59985C8.64782 2.62162 8.67513 2.64624 8.70317 2.67071C8.32081 2.83049 7.88879 3.14566 7.51904 3.7637C7.49413 3.80534 7.50552 3.86181 7.54437 3.88918C7.58321 3.91655 7.63538 3.90487 7.66029 3.86323C8.37205 2.67353 9.35407 2.64834 9.67646 2.71674C9.7671 2.7362 9.82712 2.83096 9.81055 2.92894C9.79413 3.0277 9.7066 3.09115 9.61584 3.07294C9.5957 3.06884 9.34523 3.02287 9.01236 3.13141C9.11441 3.42128 9.12496 3.8431 8.85795 4.1992C8.36314 4.90671 7.42878 4.99172 6.66779 4.45552C6.4462 4.29939 6.24724 4.08655 6.11387 3.86477Z" fill="#B9FF46"/>
</svg>
