<svg width="25" height="24" viewBox="0 0 25 24" fill="none" xmlns="http://www.w3.org/2000/svg">
<g clip-path="url(#clip0)">
<circle cx="12.2796" cy="12" r="12" fill="white"/>
<path d="M10.6542 11.8025C10.812 11.0676 11.4616 10.5427 12.2133 10.5427C12.9649 10.5427 13.6145 11.0676 13.7723 11.8025L14.4278 14.8554C14.7197 16.2148 13.6835 17.4972 12.293 17.4972H12.1335C10.7431 17.4972 9.70682 16.2148 9.99872 14.8554L10.6542 11.8025Z" fill="#CFD8E3"/>
<path d="M7.82886 12.6291C7.25443 12.6291 6.78876 12.1634 6.78876 11.589C6.78876 11.0145 7.25443 10.5489 7.82886 10.5489C8.40329 10.5489 8.86896 11.0145 8.86896 11.589C8.86896 12.1634 8.40329 12.6291 7.82886 12.6291Z" fill="#CFD8E3"/>
<path d="M16.7306 12.6291C16.1562 12.6291 15.6905 12.1634 15.6905 11.589C15.6905 11.0145 16.1562 10.5489 16.7306 10.5489C17.305 10.5489 17.7707 11.0145 17.7707 11.589C17.7707 12.1634 17.305 12.6291 16.7306 12.6291Z" fill="#CFD8E3"/>
</g>
<defs>
<clipPath id="clip0">
<rect width="24" height="24" fill="white" transform="translate(0.279785)"/>
</clipPath>
</defs>
</svg>
