<svg width="25" height="24" viewBox="0 0 25 24" fill="none" xmlns="http://www.w3.org/2000/svg">
<path d="M16.8616 20.1819V18.3637C16.8616 17.3992 16.4785 16.4743 15.7965 15.7924C15.1145 15.1104 14.1896 14.7273 13.2252 14.7273H5.95242C4.98799 14.7273 4.06307 15.1104 3.38111 15.7924C2.69916 16.4743 2.31604 17.3992 2.31604 18.3637V20.1819" stroke="white" stroke-width="1.5" stroke-linecap="round" stroke-linejoin="round"/>
<path d="M9.58893 11.0909C11.5972 11.0909 13.2253 9.46282 13.2253 7.4545C13.2253 5.44618 11.5972 3.81812 9.58893 3.81812C7.58061 3.81812 5.95255 5.44618 5.95255 7.4545C5.95255 9.46282 7.58061 11.0909 9.58893 11.0909Z" stroke="white" stroke-width="1.5" stroke-linecap="round" stroke-linejoin="round"/>
<path d="M22.3159 20.1818V18.3637C22.3153 17.558 22.0471 16.7753 21.5535 16.1385C21.0599 15.5017 20.3687 15.0469 19.5886 14.8455" stroke="white" stroke-width="1.5" stroke-linecap="round" stroke-linejoin="round"/>
<path d="M15.9526 3.93628C16.7348 4.13655 17.4281 4.59147 17.9232 5.2293C18.4183 5.86713 18.6871 6.65159 18.6871 7.45902C18.6871 8.26646 18.4183 9.05092 17.9232 9.68875C17.4281 10.3266 16.7348 10.7815 15.9526 10.9818" stroke="white" stroke-width="1.5" stroke-linecap="round" stroke-linejoin="round"/>
</svg>
