<svg width="25" height="24" viewBox="0 0 25 24" fill="none" xmlns="http://www.w3.org/2000/svg">
<path d="M17.9705 8.44613C17.9705 7.03164 17.4086 5.67508 16.4084 4.67489C15.4082 3.6747 14.0517 3.11279 12.6372 3.11279C11.2227 3.11279 9.86617 3.6747 8.86597 4.67489C7.86578 5.67508 7.30387 7.03164 7.30387 8.44613C7.30387 14.6683 4.63721 16.4461 4.63721 16.4461H20.6372C20.6372 16.4461 17.9705 14.6683 17.9705 8.44613Z" stroke="white" stroke-width="1.5" stroke-linecap="round" stroke-linejoin="round"/>
<path d="M14.1747 20.0017C14.0185 20.2711 13.7942 20.4947 13.5243 20.6502C13.2544 20.8056 12.9484 20.8874 12.637 20.8874C12.3255 20.8874 12.0195 20.8056 11.7496 20.6502C11.4798 20.4947 11.2555 20.2711 11.0992 20.0017" stroke="white" stroke-width="1.5" stroke-linecap="round" stroke-linejoin="round"/>
</svg>
