<svg width="37" height="19" viewBox="0 0 37 19" fill="none" xmlns="http://www.w3.org/2000/svg">
<path d="M9.08552 7.44522C9.18732 6.53089 9.85749 6.07373 11.096 6.07373C11.7577 6.07373 12.2498 6.12271 12.5721 6.22067C12.8945 6.31864 13.115 6.49007 13.2338 6.73498C13.3695 6.97989 13.4459 7.20031 13.4629 7.39624C13.4968 7.57584 13.5138 7.8534 13.5138 8.22893V16.8007C13.5138 17.1762 13.4968 17.462 13.4629 17.6579C13.4459 17.8375 13.378 18.0498 13.2593 18.2947C13.0217 18.7192 12.4364 18.9314 11.5032 18.9314C10.5871 18.9314 9.96778 18.8253 9.64542 18.613C9.34002 18.3845 9.16187 18.0579 9.11097 17.6334C8.48321 18.4988 7.4313 18.9314 5.95522 18.9314C4.4961 18.9314 3.13879 18.2865 1.88327 16.9966C0.627758 15.7068 0 14.2129 0 12.5148C0 10.8005 0.627758 9.30652 1.88327 8.033C3.15576 6.74315 4.547 6.09822 6.05701 6.09822C6.63387 6.09822 7.15983 6.19618 7.63489 6.39211C8.10995 6.58804 8.4408 6.7758 8.62743 6.9554C8.81406 7.11867 8.96676 7.28195 9.08552 7.44522ZM4.45369 12.5393C4.45369 13.0781 4.67425 13.5679 5.11538 14.0088C5.55651 14.4333 6.09095 14.6455 6.71871 14.6455C7.34646 14.6455 7.86394 14.4251 8.27113 13.9843C8.6953 13.5434 8.90738 13.0618 8.90738 12.5393C8.90738 12.0005 8.70378 11.5025 8.29658 11.0454C7.90636 10.5882 7.37191 10.3596 6.69326 10.3596C6.03157 10.3596 5.48864 10.5882 5.06448 11.0454C4.65728 11.5025 4.45369 12.0005 4.45369 12.5393Z" fill="white"/>
<path d="M15.5422 2.15519C15.5422 1.77967 15.5507 1.50211 15.5676 1.32251C15.6016 1.12658 15.6779 0.906161 15.7967 0.661253C16.0342 0.220418 16.6959 0 17.7817 0C18.8167 0 19.4614 0.220418 19.7159 0.661253C19.8516 0.906161 19.928 1.12658 19.945 1.32251C19.9789 1.51843 19.9959 1.80416 19.9959 2.17968V13.5189C19.9959 14.1067 20.0468 14.4823 20.1486 14.6455C20.2504 14.7925 20.4709 14.8659 20.8102 14.8659C21.1665 14.8659 21.4041 14.8823 21.5228 14.9149C21.6416 14.9313 21.7858 14.9966 21.9555 15.1109C22.2948 15.3231 22.4645 15.9027 22.4645 16.8497C22.4645 17.8783 22.2948 18.5069 21.9555 18.7355C21.5144 19.0294 20.4624 19.0784 18.7997 18.8824C17.4933 18.7192 16.645 18.3028 16.2548 17.6334C15.7797 16.8334 15.5422 15.5599 15.5422 13.8128V2.15519Z" fill="white"/>
<path d="M32.5718 7.44522C32.6736 6.53089 33.3437 6.07373 34.5823 6.07373C35.244 6.07373 35.736 6.12271 36.0584 6.22067C36.3807 6.31864 36.6013 6.49007 36.7201 6.73498C36.8558 6.97989 36.9321 7.20031 36.9491 7.39624C36.983 7.57584 37 7.8534 37 8.22893V16.8007C37 17.1762 36.983 17.462 36.9491 17.6579C36.9321 17.8375 36.8643 18.0498 36.7455 18.2947C36.508 18.7192 35.9226 18.9314 34.9895 18.9314C34.0733 18.9314 33.454 18.8253 33.1317 18.613C32.8263 18.3845 32.6481 18.0579 32.5972 17.6334C31.9695 18.4988 30.9175 18.9314 29.4415 18.9314C27.9823 18.9314 26.625 18.2865 25.3695 16.9966C24.114 15.7068 23.4862 14.2129 23.4862 12.5148C23.4862 10.8005 24.114 9.30652 25.3695 8.033C26.642 6.74315 28.0332 6.09822 29.5433 6.09822C30.1201 6.09822 30.6461 6.19618 31.1211 6.39211C31.5962 6.58804 31.927 6.7758 32.1137 6.9554C32.3003 7.11867 32.453 7.28195 32.5718 7.44522ZM27.9399 12.5393C27.9399 13.0781 28.1605 13.5679 28.6016 14.0088C29.0427 14.4333 29.5772 14.6455 30.2049 14.6455C30.8327 14.6455 31.3502 14.4251 31.7574 13.9843C32.1815 13.5434 32.3936 13.0618 32.3936 12.5393C32.3936 12.0005 32.19 11.5025 31.7828 11.0454C31.3926 10.5882 30.8582 10.3596 30.1795 10.3596C29.5178 10.3596 28.9749 10.5882 28.5507 11.0454C28.1435 11.5025 27.9399 12.0005 27.9399 12.5393Z" fill="white"/>
</svg>
