<svg width="47" height="29" viewBox="0 0 47 29" fill="none" xmlns="http://www.w3.org/2000/svg">
<g filter="url(#filter0_d)">
<path d="M14.0797 9.44522C14.1815 8.53089 14.8516 8.07373 16.0902 8.07373C16.7519 8.07373 17.2439 8.12271 17.5663 8.22067C17.8886 8.31864 18.1092 8.49008 18.228 8.73498C18.3637 8.97989 18.44 9.20031 18.457 9.39624C18.4909 9.57584 18.5079 9.8534 18.5079 10.2289V18.8007C18.5079 19.1762 18.4909 19.462 18.457 19.6579C18.44 19.8375 18.3722 20.0498 18.2534 20.2947C18.0159 20.7192 17.4305 20.9314 16.4974 20.9314C15.5812 20.9314 14.9619 20.8253 14.6396 20.613C14.3342 20.3845 14.156 20.0579 14.1051 19.6334C13.4774 20.4988 12.4254 20.9314 10.9494 20.9314C9.49024 20.9314 8.13293 20.2865 6.87741 18.9966C5.6219 17.7068 4.99414 16.2129 4.99414 14.5148C4.99414 12.8005 5.6219 11.3065 6.87741 10.033C8.1499 8.74315 9.54114 8.09822 11.0512 8.09822C11.628 8.09822 12.154 8.19618 12.629 8.39211C13.1041 8.58804 13.4349 8.7758 13.6216 8.9554C13.8082 9.11867 13.9609 9.28195 14.0797 9.44522ZM9.44783 14.5393C9.44783 15.0781 9.66839 15.5679 10.1095 16.0088C10.5506 16.4333 11.0851 16.6455 11.7128 16.6455C12.3406 16.6455 12.8581 16.4251 13.2653 15.9843C13.6894 15.5434 13.9015 15.0618 13.9015 14.5393C13.9015 14.0005 13.6979 13.5025 13.2907 13.0454C12.9005 12.5882 12.3661 12.3596 11.6874 12.3596C11.0257 12.3596 10.4828 12.5882 10.0586 13.0454C9.65142 13.5025 9.44783 14.0005 9.44783 14.5393Z" fill="white"/>
<path d="M20.5363 4.15519C20.5363 3.77967 20.5448 3.50211 20.5618 3.32251C20.5957 3.12658 20.672 2.90616 20.7908 2.66125C21.0283 2.22042 21.69 2 22.7759 2C23.8108 2 24.4556 2.22042 24.7101 2.66125C24.8458 2.90616 24.9221 3.12658 24.9391 3.32251C24.973 3.51843 24.99 3.80416 24.99 4.17968V15.5189C24.99 16.1067 25.0409 16.4823 25.1427 16.6455C25.2445 16.7925 25.4651 16.8659 25.8044 16.8659C26.1607 16.8659 26.3982 16.8823 26.517 16.9149C26.6357 16.9313 26.78 16.9966 26.9496 17.1109C27.289 17.3231 27.4586 17.9027 27.4586 18.8497C27.4586 19.8783 27.289 20.5069 26.9496 20.7355C26.5085 21.0294 25.4566 21.0784 23.7939 20.8824C22.4875 20.7192 21.6391 20.3028 21.2489 19.6334C20.7738 18.8334 20.5363 17.5599 20.5363 15.8128V4.15519Z" fill="white"/>
<path d="M37.5659 9.44522C37.6677 8.53089 38.3379 8.07373 39.5764 8.07373C40.2381 8.07373 40.7301 8.12271 41.0525 8.22067C41.3749 8.31864 41.5954 8.49008 41.7142 8.73498C41.8499 8.97989 41.9263 9.20031 41.9432 9.39624C41.9772 9.57584 41.9941 9.8534 41.9941 10.2289V18.8007C41.9941 19.1762 41.9772 19.462 41.9432 19.6579C41.9263 19.8375 41.8584 20.0498 41.7396 20.2947C41.5021 20.7192 40.9168 20.9314 39.9836 20.9314C39.0674 20.9314 38.4482 20.8253 38.1258 20.613C37.8204 20.3845 37.6423 20.0579 37.5914 19.6334C36.9636 20.4988 35.9117 20.9314 34.4356 20.9314C32.9765 20.9314 31.6192 20.2865 30.3637 18.9966C29.1081 17.7068 28.4804 16.2129 28.4804 14.5148C28.4804 12.8005 29.1081 11.3065 30.3637 10.033C31.6361 8.74315 33.0274 8.09822 34.5374 8.09822C35.1143 8.09822 35.6402 8.19618 36.1153 8.39211C36.5903 8.58804 36.9212 8.7758 37.1078 8.9554C37.2944 9.11867 37.4471 9.28195 37.5659 9.44522ZM32.9341 14.5393C32.9341 15.0781 33.1546 15.5679 33.5958 16.0088C34.0369 16.4333 34.5713 16.6455 35.1991 16.6455C35.8268 16.6455 36.3443 16.4251 36.7515 15.9843C37.1757 15.5434 37.3878 15.0618 37.3878 14.5393C37.3878 14.0005 37.1842 13.5025 36.777 13.0454C36.3867 12.5882 35.8523 12.3596 35.1736 12.3596C34.5119 12.3596 33.969 12.5882 33.5449 13.0454C33.1377 13.5025 32.9341 14.0005 32.9341 14.5393Z" fill="white"/>
</g>
<defs>
<filter id="filter0_d" x="-3.00586" y="0" width="54" height="32" filterUnits="userSpaceOnUse" color-interpolation-filters="sRGB">
<feFlood flood-opacity="0" result="BackgroundImageFix"/>
<feColorMatrix in="SourceAlpha" type="matrix" values="0 0 0 0 0 0 0 0 0 0 0 0 0 0 0 0 0 0 127 0" result="hardAlpha"/>
<feOffset dy="4"/>
<feGaussianBlur stdDeviation="2"/>
<feComposite in2="hardAlpha" operator="out"/>
<feColorMatrix type="matrix" values="0 0 0 0 0 0 0 0 0 0 0 0 0 0 0 0 0 0 0.25 0"/>
<feBlend mode="normal" in2="BackgroundImageFix" result="effect1_dropShadow"/>
<feBlend mode="normal" in="SourceGraphic" in2="effect1_dropShadow" result="shape"/>
</filter>
</defs>
</svg>
