<svg width="21" height="21" viewBox="0 0 21 21" fill="none" xmlns="http://www.w3.org/2000/svg">
<rect x="0.352539" y="0.842773" width="20" height="20" rx="4" fill="white"/>
<path d="M16.6283 10.9817C16.6283 10.4672 16.5856 10.0918 16.4931 9.70239H10.4803V12.0247H14.0097C13.9386 12.6018 13.5543 13.4709 12.7004 14.055L12.6885 14.1327L14.5896 15.5718L14.7213 15.5847C15.9309 14.493 16.6283 12.8869 16.6283 10.9817Z" fill="#4285F4"/>
<path d="M10.4804 17.1004C12.2095 17.1004 13.6611 16.5441 14.7214 15.5847L12.7005 14.0549C12.1597 14.4235 11.4339 14.6807 10.4804 14.6807C8.7869 14.6807 7.34954 13.5891 6.83717 12.0803L6.76206 12.0866L4.78525 13.5815L4.7594 13.6517C5.81251 15.6959 7.97568 17.1004 10.4804 17.1004Z" fill="#34A853"/>
<path d="M6.83712 12.0803C6.70192 11.6909 6.62368 11.2737 6.62368 10.8427C6.62368 10.4115 6.70192 9.99438 6.83001 9.60502L6.82643 9.52209L4.82484 8.00317L4.75935 8.03361C4.32531 8.88189 4.07626 9.83448 4.07626 10.8427C4.07626 11.8509 4.32531 12.8034 4.75935 13.6517L6.83712 12.0803Z" fill="#FBBC05"/>
<path d="M10.4804 7.0046C11.683 7.0046 12.4941 7.51217 12.9567 7.93633L14.764 6.21197C13.654 5.20378 12.2095 4.58496 10.4804 4.58496C7.97568 4.58496 5.81251 5.98946 4.7594 8.03364L6.83005 9.60505C7.34954 8.09624 8.7869 7.0046 10.4804 7.0046Z" fill="#EB4335"/>
</svg>
