<svg width="21" height="21" viewBox="0 0 21 21" fill="none" xmlns="http://www.w3.org/2000/svg">
<rect x="0.927734" y="0.857178" width="20" height="20" rx="4" fill="white"/>
<path d="M17.2041 11.0037C17.2041 10.4621 17.1614 10.0668 17.0689 9.65698H11.0562V12.1015H14.5855C14.5144 12.709 14.1301 13.6239 13.2762 14.2386L13.2643 14.3205L15.1654 15.8353L15.2971 15.8488C16.5067 14.6997 17.2041 13.0091 17.2041 11.0037Z" fill="#4285F4"/>
<path d="M11.056 17.4445C12.7851 17.4445 14.2367 16.8589 15.2969 15.8489L13.2761 14.2387C12.7353 14.6266 12.0095 14.8974 11.056 14.8974C9.36246 14.8974 7.92511 13.7484 7.41273 12.1602L7.33763 12.1667L5.36081 13.7403L5.33496 13.8142C6.38807 15.966 8.55124 17.4445 11.056 17.4445Z" fill="#34A853"/>
<path d="M7.41271 12.1601C7.27752 11.7503 7.19927 11.3111 7.19927 10.8573C7.19927 10.4035 7.27752 9.96442 7.4056 9.55456L7.40202 9.46727L5.40043 7.86841L5.33494 7.90045C4.90091 8.79338 4.65186 9.7961 4.65186 10.8573C4.65186 11.9186 4.90091 12.9213 5.33494 13.8142L7.41271 12.1601Z" fill="#FBBC05"/>
<path d="M11.056 6.81725C12.2585 6.81725 13.0697 7.35154 13.5322 7.79802L15.3396 5.98291C14.2296 4.92166 12.7851 4.27026 11.056 4.27026C8.55124 4.27026 6.38807 5.74869 5.33496 7.90045L7.40562 9.55456C7.92511 7.96635 9.36246 6.81725 11.056 6.81725Z" fill="#EB4335"/>
</svg>
