<svg width="19" height="19" viewBox="0 0 19 19" fill="none" xmlns="http://www.w3.org/2000/svg">
<path d="M13.9023 8.40088H4.80227C4.08429 8.40088 3.50226 8.98291 3.50226 9.70089V14.2509C3.50226 14.9689 4.08429 15.5509 4.80227 15.5509H13.9023C14.6203 15.5509 15.2024 14.9689 15.2024 14.2509V9.70089C15.2024 8.98291 14.6203 8.40088 13.9023 8.40088Z" stroke="white" stroke-width="1.2" stroke-linecap="round" stroke-linejoin="round"/>
<path d="M6.103 8.40083V5.80081C6.103 4.93885 6.44541 4.11219 7.05491 3.50269C7.66441 2.89319 8.49106 2.55078 9.35302 2.55078C10.215 2.55078 11.0416 2.89319 11.6511 3.50269C12.2606 4.11219 12.603 4.93885 12.603 5.80081V8.40083" stroke="white" stroke-width="1.2" stroke-linecap="round" stroke-linejoin="round"/>
</svg>
