<svg width="25" height="25" viewBox="0 0 25 25" fill="none" xmlns="http://www.w3.org/2000/svg">
<path d="M12.8964 21.1255C17.867 21.1255 21.8964 17.0961 21.8964 12.1255C21.8964 7.15493 17.867 3.12549 12.8964 3.12549C7.92586 3.12549 3.89642 7.15493 3.89642 12.1255C3.89642 17.0961 7.92586 21.1255 12.8964 21.1255Z" stroke="white" stroke-width="1.5" stroke-linecap="round" stroke-linejoin="round"/>
<path d="M10.2773 9.42561C10.4889 8.82411 10.9066 8.31691 11.4563 7.99383C12.006 7.67075 12.6523 7.55265 13.2808 7.66045C13.9093 7.76825 14.4793 8.09498 14.8899 8.58279C15.3005 9.07059 15.5253 9.68798 15.5243 10.3256C15.5243 12.1256 12.8243 13.0256 12.8243 13.0256" stroke="white" stroke-width="1.5" stroke-linecap="round" stroke-linejoin="round"/>
<path d="M12.8965 16.6255H12.9055" stroke="white" stroke-width="1.5" stroke-linecap="round" stroke-linejoin="round"/>
</svg>
