<svg width="19" height="19" viewBox="0 0 19 19" fill="none" xmlns="http://www.w3.org/2000/svg">
<path d="M13.876 9.07178H4.7759C4.05793 9.07178 3.47589 9.65381 3.47589 10.3718V14.9218C3.47589 15.6398 4.05793 16.2218 4.7759 16.2218H13.876C14.594 16.2218 15.176 15.6398 15.176 14.9218V10.3718C15.176 9.65381 14.594 9.07178 13.876 9.07178Z" stroke="white" stroke-width="1.2" stroke-linecap="round" stroke-linejoin="round"/>
<path d="M6.0766 9.07173V6.47171C6.0766 5.60975 6.41901 4.78309 7.02851 4.17359C7.63801 3.56409 8.46466 3.22168 9.32663 3.22168C10.1886 3.22168 11.0152 3.56409 11.6247 4.17359C12.2342 4.78309 12.5767 5.60975 12.5767 6.47171V9.07173" stroke="white" stroke-width="1.2" stroke-linecap="round" stroke-linejoin="round"/>
</svg>
