<svg width="32" height="32" viewBox="0 0 32 32" fill="none" xmlns="http://www.w3.org/2000/svg">
<rect width="32" height="32" rx="16" fill="#151515"/>
<path opacity="0.5" fill-rule="evenodd" clip-rule="evenodd" d="M18.0228 8.38353L9.72897 9.00848C9.06022 9.06775 8.82715 9.51418 8.82715 10.0494V19.3316C8.82715 19.7487 8.9724 20.1051 9.32179 20.5816L11.2714 23.1699C11.5917 23.5867 11.8827 23.6758 12.4942 23.646L22.1257 23.0509C22.9403 22.9917 23.1734 22.6046 23.1734 21.9501V11.5073C23.1734 11.169 23.0426 11.0713 22.6569 10.7832C22.6357 10.7674 22.6137 10.7509 22.5909 10.7339L19.9434 8.82984C19.3033 8.35402 19.0413 8.29415 18.0228 8.38353ZM12.7126 11.3361C11.9262 11.3904 11.7475 11.4027 11.301 11.0315L10.1654 10.1093C10.0496 9.98999 10.1076 9.84125 10.3985 9.81172L18.372 9.21665C19.0411 9.15702 19.3902 9.39543 19.6523 9.60355L21.0199 10.6152C21.0781 10.6448 21.2234 10.8231 21.0487 10.8231L12.8141 11.3291L12.7126 11.3361ZM11.7954 21.8607V12.9952C11.7954 12.6085 11.9118 12.4298 12.2608 12.3998L21.7179 11.8347C22.0387 11.805 22.184 12.0134 22.184 12.3998V21.2059C22.184 21.593 22.1256 21.9206 21.6016 21.9501L12.5518 22.486C12.0281 22.5154 11.7954 22.3372 11.7954 21.8607ZM20.7293 13.4707C20.7874 13.7388 20.7293 14.0065 20.4669 14.0367L20.0308 14.1256V20.6707C19.6523 20.8789 19.3032 20.9979 19.0123 20.9979C18.5465 20.9979 18.4298 20.849 18.081 20.403L15.2288 15.8214V20.2543L16.1313 20.4627C16.1313 20.4627 16.1313 20.9979 15.4032 20.9979L13.3958 21.1171C13.3375 20.9979 13.3958 20.7007 13.5994 20.6411L14.1232 20.4925V14.6315L13.3959 14.5719C13.3376 14.3039 13.4828 13.9174 13.8906 13.8874L16.044 13.7389L19.0123 18.3801V14.2743L18.2555 14.1855C18.1974 13.8578 18.4298 13.6199 18.7209 13.5903L20.7293 13.4707Z" fill="white"/>
</svg>
