<svg width="32" height="32" viewBox="0 0 32 32" fill="none" xmlns="http://www.w3.org/2000/svg">
<rect width="32" height="32" rx="16" fill="#151515"/>
<path opacity="0.5" d="M12.7399 13.4033C12.6991 13.1382 12.6787 12.8679 12.6787 12.5926C12.6889 12.3173 12.7399 12.0471 12.8317 11.782C12.9438 11.4353 13.1274 11.1294 13.3823 10.8643C13.6372 10.5991 13.9278 10.3901 14.2541 10.2372C14.6008 10.074 14.9526 9.96183 15.3095 9.90065C15.6766 9.82928 16.0335 9.81398 16.3802 9.85477C16.7371 9.89555 17.0787 9.98733 17.405 10.1301C17.7415 10.2626 18.0576 10.4564 18.3533 10.7113C18.6694 10.9866 18.9039 11.3078 19.0569 11.6749C19.22 12.0318 19.3067 12.404 19.3169 12.7915C19.3373 13.179 19.2914 13.5664 19.1792 13.9539C19.0773 14.3312 18.9192 14.683 18.7051 15.0093C18.7051 15.0093 18.7 15.0195 18.6898 15.0399C18.5164 15.2744 18.3176 15.4885 18.0933 15.6823C17.8689 15.8658 17.6599 16.0647 17.4662 16.2788C17.2418 16.5133 17.1093 16.753 17.0685 16.9977C17.0277 17.2322 16.9869 17.4973 16.9461 17.793C16.9155 18.0786 16.839 18.3284 16.7167 18.5425C16.6045 18.7465 16.3904 18.8433 16.0743 18.8331C15.8601 18.8229 15.697 18.7567 15.5848 18.6343C15.4829 18.5017 15.4064 18.3488 15.3554 18.1754C15.3146 17.9919 15.2993 17.8032 15.3095 17.6095C15.3197 17.4056 15.335 17.2271 15.3554 17.0742C15.4166 16.7173 15.5287 16.3808 15.6919 16.0647C15.855 15.7384 16.0539 15.4325 16.2884 15.147C16.421 14.994 16.5535 14.8563 16.6861 14.734C16.8186 14.6014 16.941 14.4638 17.0532 14.321C17.1653 14.1782 17.2622 14.0253 17.3438 13.8621C17.4254 13.699 17.4814 13.5104 17.512 13.2962C17.5426 13.1025 17.5273 12.9087 17.4662 12.715C17.405 12.5111 17.3132 12.3326 17.1908 12.1797C17.0685 12.0165 16.9206 11.8839 16.7473 11.782C16.5739 11.6698 16.3853 11.6086 16.1813 11.5984C15.9978 11.5882 15.8041 11.6137 15.6001 11.6749C15.3962 11.7259 15.2075 11.8126 15.0342 11.9349C14.8608 12.0471 14.7181 12.1848 14.6059 12.3479C14.504 12.5111 14.4581 12.6946 14.4683 12.8985C14.4785 13.0209 14.4989 13.1484 14.5294 13.2809C14.5702 13.4033 14.5957 13.5256 14.6059 13.648C14.6263 13.7602 14.6212 13.8723 14.5906 13.9845C14.5702 14.0967 14.504 14.2037 14.3918 14.3057C14.2082 14.4791 14.0247 14.5657 13.8412 14.5657C13.6576 14.5555 13.4894 14.4944 13.3364 14.3822C13.1835 14.27 13.0509 14.1273 12.9387 13.9539C12.8368 13.7704 12.7705 13.5868 12.7399 13.4033ZM17.1449 21.0357C17.1449 21.3314 17.0328 21.5965 16.8085 21.831C16.5943 22.0553 16.3445 22.1675 16.059 22.1675C15.7837 22.1675 15.5389 22.0553 15.3248 21.831C15.1107 21.5863 15.0036 21.3212 15.0036 21.0357C15.0036 20.7196 15.1107 20.4544 15.3248 20.2403C15.5389 20.0058 15.7837 19.8885 16.059 19.8885C16.3445 19.8885 16.5943 20.0058 16.8085 20.2403C17.0328 20.4646 17.1449 20.7298 17.1449 21.0357Z" fill="white"/>
</svg>
