<svg width="41" height="41" viewBox="0 0 41 41" fill="none" xmlns="http://www.w3.org/2000/svg">
<circle cx="20.9551" cy="20.385" r="19.5" fill="white" stroke="#D2D6DC"/>
<path d="M18.2458 20.4847C18.5088 19.2599 19.5915 18.385 20.8442 18.385C22.0969 18.385 23.1796 19.2599 23.4426 20.4847L24.5351 25.5728C25.0216 27.8385 23.2945 29.9758 20.9771 29.9758H20.7113C18.3939 29.9758 16.6668 27.8385 17.1533 25.5728L18.2458 20.4847Z" fill="#CFD8E3"/>
<path d="M13.5369 21.8623C12.5795 21.8623 11.8034 21.0861 11.8034 20.1287C11.8034 19.1714 12.5795 18.3952 13.5369 18.3952C14.4943 18.3952 15.2704 19.1714 15.2704 20.1287C15.2704 21.0861 14.4943 21.8623 13.5369 21.8623Z" fill="#CFD8E3"/>
<path d="M28.3731 21.8623C27.4157 21.8623 26.6396 21.0862 26.6396 20.1288C26.6396 19.1714 27.4157 18.3953 28.3731 18.3953C29.3305 18.3953 30.1066 19.1714 30.1066 20.1288C30.1066 21.0862 29.3305 21.8623 28.3731 21.8623Z" fill="#CFD8E3"/>
</svg>
