<svg width="58" height="37" viewBox="0 0 58 37" fill="none" xmlns="http://www.w3.org/2000/svg">
<rect x="0.455078" y="0.38501" width="57" height="36" rx="18" fill="#2A2A2A"/>
<path d="M27.6211 19.0517C27.9074 19.4345 28.2727 19.7512 28.6921 19.9804C29.1116 20.2095 29.5754 20.3458 30.0522 20.38C30.529 20.4141 31.0075 20.3453 31.4553 20.1783C31.9032 20.0112 32.3098 19.7498 32.6478 19.4117L34.6478 17.4117C35.255 16.7831 35.5909 15.9411 35.5833 15.0671C35.5757 14.1931 35.2252 13.357 34.6072 12.739C33.9891 12.121 33.1531 11.7704 32.2791 11.7628C31.4051 11.7552 30.5631 12.0912 29.9344 12.6984L28.7878 13.8384" stroke="white" stroke-width="1.5" stroke-linecap="round" stroke-linejoin="round"/>
<path d="M30.2885 17.7183C30.0022 17.3356 29.637 17.0189 29.2175 16.7897C28.798 16.5605 28.3342 16.4243 27.8574 16.3901C27.3807 16.356 26.9022 16.4248 26.4543 16.5918C26.0065 16.7589 25.5998 17.0203 25.2619 17.3583L23.2619 19.3583C22.6547 19.987 22.3187 20.829 22.3263 21.703C22.3339 22.577 22.6845 23.413 23.3025 24.0311C23.9205 24.6491 24.7566 24.9996 25.6305 25.0072C26.5045 25.0148 27.3465 24.6789 27.9752 24.0717L29.1152 22.9317" stroke="white" stroke-width="1.5" stroke-linecap="round" stroke-linejoin="round"/>
</svg>
