<svg xmlns="http://www.w3.org/2000/svg" width="21" height="20" fill="none" viewBox="0 0 21 20">
    <path fill="#FFC107" d="M18.671 8.368H18v-.035h-7.5v3.334h4.71C14.521 13.607 12.675 15 10.5 15c-2.761 0-5-2.239-5-5s2.239-5 5-5c1.274 0 2.434.48 3.317 1.266l2.357-2.357c-1.488-1.387-3.48-2.242-5.674-2.242-4.602 0-8.334 3.731-8.334 8.333s3.732 8.333 8.334 8.333c4.602 0 8.333-3.73 8.333-8.333 0-.559-.057-1.104-.162-1.632z"/>
    <path fill="#FF3D00" d="M3.127 6.121L5.865 8.13C6.606 6.295 8.4 5 10.5 5c1.274 0 2.434.48 3.317 1.266l2.357-2.357c-1.488-1.387-3.48-2.242-5.674-2.242-3.2 0-5.977 1.807-7.373 4.454z"/>
    <path fill="#4CAF50" d="M10.5 18.333c2.152 0 4.108-.823 5.587-2.163l-2.58-2.183c-.864.658-1.92 1.014-3.007 1.013-2.168 0-4.008-1.382-4.701-3.31L3.08 13.782c1.38 2.699 4.18 4.55 7.419 4.55z"/>
    <path fill="#1976D2" d="M18.671 8.368H18v-.035h-7.5v3.334h4.71c-.33.923-.921 1.73-1.703 2.32l2.58 2.182c-.182.166 2.746-2.002 2.746-6.17 0-.558-.057-1.103-.162-1.631z"/>
</svg>
