<svg width="45" height="46" viewBox="0 0 45 46" fill="none" xmlns="http://www.w3.org/2000/svg">
<path d="M5.39648 26.3393C5.39648 16.7501 13.1701 8.97656 22.7592 8.97656V8.97656C32.3484 8.97656 40.122 16.7501 40.122 26.3393V27.705C40.122 37.2942 32.3484 45.0678 22.7592 45.0678V45.0678C13.1701 45.0678 5.39648 37.2942 5.39648 27.705V26.3393Z" fill="white"/>
<rect x="29.1426" y="5.89551" width="14.7845" height="15.366" rx="7.39225" fill="white"/>
<rect x="0.600586" y="5.89551" width="14.7845" height="15.366" rx="7.39226" fill="white"/>
<ellipse cx="42.9876" cy="15.48" rx="1.76006" ry="2.32817" fill="white"/>
<ellipse cx="42.3284" cy="18.6812" rx="1.76006" ry="2.32817" fill="white"/>
<ellipse cx="40.3489" cy="20.4268" rx="1.76006" ry="2.32818" fill="white"/>
<ellipse rx="1.76182" ry="2.32602" transform="matrix(-0.986474 0.163921 0.152043 0.988374 1.87153 15.5321)" fill="white"/>
<ellipse rx="1.76182" ry="2.32602" transform="matrix(-0.986473 0.163921 0.152043 0.988374 3.00922 18.5853)" fill="white"/>
<ellipse rx="1.76182" ry="2.32602" transform="matrix(-0.986474 0.163921 0.152043 0.988374 5.22992 19.9843)" fill="white"/>
<path d="M26.1787 24.6707C26.1787 25.6519 26.9741 26.4473 27.9553 26.4473V26.4473C28.9364 26.4473 29.7318 25.6519 29.7318 24.6707V24.531C29.7318 23.5498 28.9364 22.7544 27.9553 22.7544V22.7544C26.9741 22.7544 26.1787 23.5498 26.1787 24.531V24.6707Z" fill="#3C2F41"/>
<rect width="3.55309" height="3.69283" rx="1.77655" transform="matrix(1 0 0 -1 11.8594 26.4473)" fill="#3C2F41"/>
<path d="M17.6724 25.5226C17.8643 23.9425 19.2055 22.7544 20.7972 22.7544V22.7544C22.3889 22.7544 23.7301 23.9425 23.922 25.5226L24.5682 30.8417C24.8345 33.0331 23.1241 34.9639 20.9165 34.9639H20.6779C18.4703 34.9639 16.7599 33.0331 17.0262 30.8417L17.6724 25.5226Z" fill="#3C2F41"/>
<path d="M20.876 8.67664L25.2842 5.23291L25.8468 7.23141L25.2842 8.98409L21.0835 10.5215L20.876 8.67664Z" fill="#121212"/>
<path d="M15.9457 9.67883C15.7937 9.43684 15.9603 9.15083 16.2349 9.16931C17.4936 9.24681 18.6742 8.66146 19.3679 7.55093L20.2433 6.14964C21.4032 4.29292 23.8114 3.77656 25.6197 4.99684C25.7392 5.07743 25.8447 5.16857 25.9531 5.25911C24.4753 5.85055 22.8056 7.01712 21.3765 9.30474C21.2802 9.45888 21.3243 9.66789 21.4744 9.76919C21.6245 9.8705 21.8262 9.82727 21.9225 9.67313C24.6733 5.26955 28.4687 5.17633 29.7148 5.4295C30.0651 5.50154 30.297 5.85229 30.233 6.21494C30.1695 6.58048 29.8312 6.81534 29.4805 6.74795C29.4026 6.73279 28.4346 6.56261 27.1481 6.96438C27.5425 8.03728 27.5832 9.59864 26.5513 10.9167C24.6389 13.5355 21.0277 13.8501 18.0865 11.8655C17.2301 11.2876 16.4611 10.4998 15.9457 9.67883V9.67883Z" fill="#B9FF46"/>
</svg>
